<svg xmlns="http://www.w3.org/2000/svg" viewBox="0 0 79.75 31.89"><defs><style>.cls-1{fill:#1d1d1b;}</style></defs><g id="Layer_2" data-name="Layer 2"><g id="Layer_1-2" data-name="Layer 1"><path class="cls-1" d="M.23,25.75v6.14H22.6A3.18,3.18,0,0,0,24.86,31l4.51-4.51a3.23,3.23,0,0,0,.93-2.26V0H23.92V12.41a.58.58,0,0,1-.58.58H7a.58.58,0,0,1-.58-.58V0H0V11.44a3.22,3.22,0,0,0,.93,2.25L5.44,18.2a3.19,3.19,0,0,0,2.26.94H23.34a.58.58,0,0,1,.58.58v5.45a.58.58,0,0,1-.58.58Z"/><path class="cls-1" d="M74.3.93A3.22,3.22,0,0,0,72.05,0H61.93c-.85,0-1.66.8-2.26,1.4L58.23,2.84a1.16,1.16,0,0,1-1.64,0L55.16,1.4C54.56.8,53.75,0,52.9,0H42.78a3.22,3.22,0,0,0-2.25.93L36,5.44a3.19,3.19,0,0,0-.94,2.26V31.89h6.73V7.31a.58.58,0,0,1,.58-.58H53.64a.58.58,0,0,1,.58.58V31.89H60.6V7.31a.58.58,0,0,1,.58-.58H72.42a.58.58,0,0,1,.58.58V31.89h6.73l0-24.19a3.19,3.19,0,0,0-.94-2.26Z"/></g></g></svg>