<?xml version="1.0" standalone="no"?>
<!DOCTYPE svg PUBLIC "-//W3C//DTD SVG 20010904//EN"
 "http://www.w3.org/TR/2001/REC-SVG-20010904/DTD/svg10.dtd">
<svg version="1.0" xmlns="http://www.w3.org/2000/svg"
 width="1280.000000pt" height="1280.000000pt" viewBox="0 0 1280.000000 1280.000000"
 preserveAspectRatio="xMidYMid meet">
<metadata>
Created by potrace 1.14, written by Peter Selinger 2001-2017
</metadata>
<g transform="translate(0.000000,1280.000000) scale(0.100000,-0.100000)"
fill="#000000" stroke="none">
<path d="M3 7998 c2 -530 6 -974 9 -988 8 -37 46 -127 65 -158 31 -46 58 -75
447 -464 318 -318 446 -438 476 -444 3 0 23 -9 45 -19 22 -9 45 -18 50 -20 73
-15 295 -18 1395 -19 987 -1 1290 -4 1306 -13 21 -12 51 -69 42 -79 -3 -3 -2
-21 2 -40 4 -18 5 -34 1 -34 -5 0 -6 -135 0 -150 1 -3 0 -9 -1 -15 -5 -19 -1
-136 5 -145 4 -6 3 -10 -2 -10 -6 0 -9 -133 -2 -150 1 -3 0 -9 -1 -15 -5 -22
-1 -296 5 -305 3 -5 3 -10 -2 -10 -4 0 -9 -11 -9 -25 -2 -26 -38 -63 -64 -66
-8 -1 -850 -2 -1870 -4 -1020 -1 -1857 -3 -1860 -4 -3 0 -5 -220 -5 -488 l1
-488 1844 0 c1015 0 1856 3 1870 7 63 16 118 41 175 79 46 31 768 749 827 823
21 27 50 74 64 105 26 55 29 67 41 126 3 17 6 917 7 2000 l0 1970 -512 3
c-483 2 -512 1 -513 -15 -2 -37 -1 -158 1 -168 1 -5 1 -14 0 -20 -2 -13 -2
-87 0 -100 1 -5 1 -14 0 -20 -2 -13 -2 -87 0 -100 1 -5 1 -14 0 -20 -2 -13 -2
-87 0 -100 1 -5 1 -14 0 -20 -2 -13 -2 -87 0 -100 1 -5 1 -14 0 -20 -2 -13 -2
-87 0 -100 1 -5 1 -14 0 -20 -2 -13 -2 -87 0 -100 1 -5 1 -14 0 -20 -2 -13 -2
-87 0 -100 1 -5 1 -14 0 -20 -2 -13 -2 -87 0 -100 1 -5 1 -14 0 -20 -2 -13 -2
-87 0 -100 1 -5 1 -14 0 -20 -2 -13 -2 -87 0 -100 1 -5 1 -14 0 -20 -2 -13 -2
-87 0 -100 1 -5 1 -14 0 -20 -2 -13 -2 -87 0 -100 1 -5 1 -14 0 -20 -1 -5 -1
-28 -1 -50 2 -54 1 -83 -2 -133 -1 -23 1 -42 5 -42 4 0 5 -6 2 -13 -9 -24 -10
-98 -2 -103 13 -8 -33 -83 -56 -91 -35 -12 -2667 -11 -2696 1 -14 6 -33 20
-42 31 -16 19 -17 90 -18 1033 l0 1012 -515 0 -515 0 3 -962z"/>
<path d="M6743 8945 c-61 -17 -157 -64 -193 -94 -53 -45 -783 -777 -814 -815
-33 -41 -91 -146 -81 -146 3 0 1 -9 -6 -21 -6 -12 -13 -37 -16 -57 -3 -21 -5
-921 -6 -2002 l0 -1965 540 -3 541 -2 0 1977 c1 1088 1 1984 1 1991 1 7 14 26
30 41 l30 29 937 0 937 0 29 -28 c15 -16 28 -34 29 -42 0 -7 1 -903 1 -1991
l1 -1977 511 2 511 3 0 1976 c1 1601 3 1981 14 2007 9 21 24 34 45 41 42 14
1842 14 1876 0 59 -23 55 122 55 -2039 l1 -1985 540 -3 540 -2 -1 1987 -1
1988 -21 60 c-21 60 -31 80 -69 142 -10 18 -206 218 -434 446 -349 348 -424
417 -472 440 -121 58 -87 56 -1048 54 l-885 -2 -57 -32 c-79 -45 -147 -96
-147 -110 -1 -7 -5 -13 -9 -13 -5 0 -80 -72 -168 -159 -163 -163 -204 -191
-271 -191 -64 0 -103 28 -262 187 -185 185 -262 253 -333 290 l-53 28 -885 2
c-734 1 -894 -1 -937 -12z"/>
</g>
</svg>
